<mxfile host="app.diagrams.net" agent="Mozilla/5.0 (X11; Linux x86_64; rv:129.0) Gecko/20100101 Firefox/129.0" version="24.7.8">
  <diagram name="Page-1" id="x436nw2a3fQkttNt9fFi">
    <mxGraphModel dx="1158" dy="620" grid="1" gridSize="10" guides="1" tooltips="1" connect="1" arrows="1" fold="1" page="1" pageScale="1" pageWidth="850" pageHeight="1100" math="0" shadow="0">
      <root>
        <mxCell id="0" />
        <mxCell id="1" parent="0" />
        <mxCell id="jeCg72-pYYv0W8vjRzq4-4" value="início" style="ellipse;whiteSpace=wrap;html=1;fillColor=#d5e8d4;strokeColor=#82b366;" parent="1" vertex="1">
          <mxGeometry x="80" y="10" width="120" height="80" as="geometry" />
        </mxCell>
        <mxCell id="jeCg72-pYYv0W8vjRzq4-16" style="edgeStyle=orthogonalEdgeStyle;rounded=0;orthogonalLoop=1;jettySize=auto;html=1;" parent="1" edge="1">
          <mxGeometry relative="1" as="geometry">
            <mxPoint x="130" y="430" as="sourcePoint" />
          </mxGeometry>
        </mxCell>
        <mxCell id="klOBz9_SC71Y1ds55rlh-22" value="não" style="edgeStyle=orthogonalEdgeStyle;rounded=0;orthogonalLoop=1;jettySize=auto;html=1;entryX=0;entryY=0.5;entryDx=0;entryDy=0;" parent="1" source="klOBz9_SC71Y1ds55rlh-18" edge="1">
          <mxGeometry relative="1" as="geometry">
            <Array as="points">
              <mxPoint x="250" y="500" />
              <mxPoint x="250" y="185" />
            </Array>
            <mxPoint x="280" y="185" as="targetPoint" />
          </mxGeometry>
        </mxCell>
        <mxCell id="d3MKEvzSY7tE_r2hZzPd-1" value="S" style="html=1;strokeWidth=2;shape=manualInput;whiteSpace=wrap;rounded=1;size=26;arcSize=11;fillColor=#fff2cc;strokeColor=#d6b656;" vertex="1" parent="1">
          <mxGeometry x="90" y="140" width="100" height="60" as="geometry" />
        </mxCell>
        <mxCell id="d3MKEvzSY7tE_r2hZzPd-2" style="edgeStyle=orthogonalEdgeStyle;rounded=0;orthogonalLoop=1;jettySize=auto;html=1;entryX=0.5;entryY=0.167;entryDx=0;entryDy=0;entryPerimeter=0;" edge="1" parent="1" source="jeCg72-pYYv0W8vjRzq4-4" target="d3MKEvzSY7tE_r2hZzPd-1">
          <mxGeometry relative="1" as="geometry" />
        </mxCell>
        <mxCell id="d3MKEvzSY7tE_r2hZzPd-3" value="R = S * I" style="rounded=0;whiteSpace=wrap;html=1;fillColor=#dae8fc;strokeColor=#6c8ebf;" vertex="1" parent="1">
          <mxGeometry x="440" y="255" width="160" height="50" as="geometry" />
        </mxCell>
        <mxCell id="d3MKEvzSY7tE_r2hZzPd-33" value="" style="edgeStyle=orthogonalEdgeStyle;rounded=0;orthogonalLoop=1;jettySize=auto;html=1;" edge="1" parent="1" source="d3MKEvzSY7tE_r2hZzPd-5" target="d3MKEvzSY7tE_r2hZzPd-7">
          <mxGeometry relative="1" as="geometry" />
        </mxCell>
        <mxCell id="d3MKEvzSY7tE_r2hZzPd-5" value="R" style="strokeWidth=2;html=1;shape=mxgraph.flowchart.display;whiteSpace=wrap;fillColor=#f8cecc;strokeColor=#b85450;" vertex="1" parent="1">
          <mxGeometry x="470" y="370" width="100" height="60" as="geometry" />
        </mxCell>
        <mxCell id="d3MKEvzSY7tE_r2hZzPd-6" style="edgeStyle=orthogonalEdgeStyle;rounded=0;orthogonalLoop=1;jettySize=auto;html=1;entryX=0.5;entryY=0;entryDx=0;entryDy=0;entryPerimeter=0;" edge="1" parent="1" source="d3MKEvzSY7tE_r2hZzPd-3" target="d3MKEvzSY7tE_r2hZzPd-5">
          <mxGeometry relative="1" as="geometry" />
        </mxCell>
        <mxCell id="d3MKEvzSY7tE_r2hZzPd-7" value="fim" style="ellipse;whiteSpace=wrap;html=1;fillColor=#d5e8d4;strokeColor=#82b366;" vertex="1" parent="1">
          <mxGeometry x="460" y="480" width="120" height="80" as="geometry" />
        </mxCell>
        <mxCell id="d3MKEvzSY7tE_r2hZzPd-13" style="edgeStyle=orthogonalEdgeStyle;rounded=0;orthogonalLoop=1;jettySize=auto;html=1;entryX=0.5;entryY=0;entryDx=0;entryDy=0;entryPerimeter=0;" edge="1" parent="1" source="d3MKEvzSY7tE_r2hZzPd-1">
          <mxGeometry relative="1" as="geometry">
            <mxPoint x="140" y="240" as="targetPoint" />
          </mxGeometry>
        </mxCell>
        <mxCell id="d3MKEvzSY7tE_r2hZzPd-20" value="não" style="edgeStyle=orthogonalEdgeStyle;rounded=0;orthogonalLoop=1;jettySize=auto;html=1;entryX=0.5;entryY=0;entryDx=0;entryDy=0;" edge="1" parent="1" source="d3MKEvzSY7tE_r2hZzPd-14" target="d3MKEvzSY7tE_r2hZzPd-19">
          <mxGeometry relative="1" as="geometry" />
        </mxCell>
        <mxCell id="d3MKEvzSY7tE_r2hZzPd-30" value="sim" style="edgeStyle=orthogonalEdgeStyle;rounded=0;orthogonalLoop=1;jettySize=auto;html=1;entryX=0;entryY=0.5;entryDx=0;entryDy=0;" edge="1" parent="1" source="d3MKEvzSY7tE_r2hZzPd-14" target="d3MKEvzSY7tE_r2hZzPd-24">
          <mxGeometry relative="1" as="geometry" />
        </mxCell>
        <mxCell id="d3MKEvzSY7tE_r2hZzPd-14" value="&lt;div&gt;S &amp;gt; 1903.98 &lt;br&gt;&lt;/div&gt;&lt;div&gt;&amp;amp;&amp;amp;&lt;/div&gt;&lt;div&gt;S &amp;lt;= 2826.65&lt;br&gt;&lt;/div&gt;" style="rhombus;whiteSpace=wrap;html=1;fillColor=#f8cecc;strokeColor=#b85450;" vertex="1" parent="1">
          <mxGeometry x="100" y="360" width="80" height="80" as="geometry" />
        </mxCell>
        <mxCell id="d3MKEvzSY7tE_r2hZzPd-17" value="não" style="edgeStyle=orthogonalEdgeStyle;rounded=0;orthogonalLoop=1;jettySize=auto;html=1;entryX=0.5;entryY=0;entryDx=0;entryDy=0;" edge="1" parent="1" source="d3MKEvzSY7tE_r2hZzPd-16" target="d3MKEvzSY7tE_r2hZzPd-14">
          <mxGeometry relative="1" as="geometry" />
        </mxCell>
        <mxCell id="d3MKEvzSY7tE_r2hZzPd-29" value="sim" style="edgeStyle=orthogonalEdgeStyle;rounded=0;orthogonalLoop=1;jettySize=auto;html=1;entryX=0;entryY=0.5;entryDx=0;entryDy=0;" edge="1" parent="1" source="d3MKEvzSY7tE_r2hZzPd-16" target="d3MKEvzSY7tE_r2hZzPd-23">
          <mxGeometry relative="1" as="geometry" />
        </mxCell>
        <mxCell id="d3MKEvzSY7tE_r2hZzPd-16" value="S &amp;lt;= 1903.98" style="rhombus;whiteSpace=wrap;html=1;fillColor=#f8cecc;strokeColor=#b85450;" vertex="1" parent="1">
          <mxGeometry x="100" y="240" width="80" height="80" as="geometry" />
        </mxCell>
        <mxCell id="d3MKEvzSY7tE_r2hZzPd-22" value="não" style="edgeStyle=orthogonalEdgeStyle;rounded=0;orthogonalLoop=1;jettySize=auto;html=1;entryX=0.5;entryY=0;entryDx=0;entryDy=0;" edge="1" parent="1" source="d3MKEvzSY7tE_r2hZzPd-19" target="d3MKEvzSY7tE_r2hZzPd-21">
          <mxGeometry relative="1" as="geometry" />
        </mxCell>
        <mxCell id="d3MKEvzSY7tE_r2hZzPd-31" value="sim" style="edgeStyle=orthogonalEdgeStyle;rounded=0;orthogonalLoop=1;jettySize=auto;html=1;" edge="1" parent="1" source="d3MKEvzSY7tE_r2hZzPd-19" target="d3MKEvzSY7tE_r2hZzPd-25">
          <mxGeometry relative="1" as="geometry" />
        </mxCell>
        <mxCell id="d3MKEvzSY7tE_r2hZzPd-19" value="&lt;div&gt;S &amp;gt; 2826.65&lt;/div&gt;&lt;div&gt;&amp;amp;&amp;amp;&lt;/div&gt;&lt;div&gt;S &amp;lt;= 3751.05&lt;br&gt;&lt;/div&gt;" style="rhombus;whiteSpace=wrap;html=1;fillColor=#f8cecc;strokeColor=#b85450;" vertex="1" parent="1">
          <mxGeometry x="100" y="480" width="80" height="80" as="geometry" />
        </mxCell>
        <mxCell id="d3MKEvzSY7tE_r2hZzPd-28" value="não" style="edgeStyle=orthogonalEdgeStyle;rounded=0;orthogonalLoop=1;jettySize=auto;html=1;entryX=0;entryY=0.5;entryDx=0;entryDy=0;" edge="1" parent="1" source="d3MKEvzSY7tE_r2hZzPd-21" target="d3MKEvzSY7tE_r2hZzPd-27">
          <mxGeometry relative="1" as="geometry">
            <Array as="points">
              <mxPoint x="140" y="760" />
            </Array>
          </mxGeometry>
        </mxCell>
        <mxCell id="d3MKEvzSY7tE_r2hZzPd-32" value="sim" style="edgeStyle=orthogonalEdgeStyle;rounded=0;orthogonalLoop=1;jettySize=auto;html=1;" edge="1" parent="1" source="d3MKEvzSY7tE_r2hZzPd-21" target="d3MKEvzSY7tE_r2hZzPd-26">
          <mxGeometry relative="1" as="geometry" />
        </mxCell>
        <mxCell id="d3MKEvzSY7tE_r2hZzPd-21" value="&lt;div&gt;S &amp;gt; 3751.05&lt;/div&gt;&lt;div&gt;&amp;amp;&amp;amp;&lt;/div&gt;&lt;div&gt;S &amp;lt;= 4664.68&lt;br&gt;&lt;/div&gt;" style="rhombus;whiteSpace=wrap;html=1;fillColor=#f8cecc;strokeColor=#b85450;" vertex="1" parent="1">
          <mxGeometry x="100" y="600" width="80" height="80" as="geometry" />
        </mxCell>
        <mxCell id="d3MKEvzSY7tE_r2hZzPd-38" style="edgeStyle=orthogonalEdgeStyle;rounded=0;orthogonalLoop=1;jettySize=auto;html=1;entryX=0;entryY=0.5;entryDx=0;entryDy=0;" edge="1" parent="1" source="d3MKEvzSY7tE_r2hZzPd-23" target="d3MKEvzSY7tE_r2hZzPd-3">
          <mxGeometry relative="1" as="geometry" />
        </mxCell>
        <mxCell id="d3MKEvzSY7tE_r2hZzPd-23" value="I = 1" style="rounded=0;whiteSpace=wrap;html=1;fillColor=#dae8fc;strokeColor=#6c8ebf;" vertex="1" parent="1">
          <mxGeometry x="240" y="250" width="120" height="60" as="geometry" />
        </mxCell>
        <mxCell id="d3MKEvzSY7tE_r2hZzPd-37" style="edgeStyle=orthogonalEdgeStyle;rounded=0;orthogonalLoop=1;jettySize=auto;html=1;entryX=0;entryY=0.5;entryDx=0;entryDy=0;" edge="1" parent="1" source="d3MKEvzSY7tE_r2hZzPd-24" target="d3MKEvzSY7tE_r2hZzPd-3">
          <mxGeometry relative="1" as="geometry" />
        </mxCell>
        <mxCell id="d3MKEvzSY7tE_r2hZzPd-24" value="I = &lt;span id=&quot;display&quot; class=&quot;tile__display__main&quot;&gt;0.925&lt;/span&gt;" style="rounded=0;whiteSpace=wrap;html=1;fillColor=#dae8fc;strokeColor=#6c8ebf;" vertex="1" parent="1">
          <mxGeometry x="240" y="370" width="120" height="60" as="geometry" />
        </mxCell>
        <mxCell id="d3MKEvzSY7tE_r2hZzPd-34" value="" style="edgeStyle=orthogonalEdgeStyle;rounded=0;orthogonalLoop=1;jettySize=auto;html=1;" edge="1" parent="1" source="d3MKEvzSY7tE_r2hZzPd-25" target="d3MKEvzSY7tE_r2hZzPd-3">
          <mxGeometry relative="1" as="geometry">
            <Array as="points">
              <mxPoint x="400" y="520" />
              <mxPoint x="400" y="280" />
            </Array>
          </mxGeometry>
        </mxCell>
        <mxCell id="d3MKEvzSY7tE_r2hZzPd-25" value="I = 0.85" style="rounded=0;whiteSpace=wrap;html=1;fillColor=#dae8fc;strokeColor=#6c8ebf;" vertex="1" parent="1">
          <mxGeometry x="240" y="490" width="120" height="60" as="geometry" />
        </mxCell>
        <mxCell id="d3MKEvzSY7tE_r2hZzPd-35" style="edgeStyle=orthogonalEdgeStyle;rounded=0;orthogonalLoop=1;jettySize=auto;html=1;entryX=0;entryY=0.5;entryDx=0;entryDy=0;" edge="1" parent="1" source="d3MKEvzSY7tE_r2hZzPd-26" target="d3MKEvzSY7tE_r2hZzPd-3">
          <mxGeometry relative="1" as="geometry" />
        </mxCell>
        <mxCell id="d3MKEvzSY7tE_r2hZzPd-26" value="I = 0.775" style="rounded=0;whiteSpace=wrap;html=1;fillColor=#dae8fc;strokeColor=#6c8ebf;" vertex="1" parent="1">
          <mxGeometry x="240" y="610" width="120" height="60" as="geometry" />
        </mxCell>
        <mxCell id="d3MKEvzSY7tE_r2hZzPd-36" style="edgeStyle=orthogonalEdgeStyle;rounded=0;orthogonalLoop=1;jettySize=auto;html=1;entryX=0;entryY=0.5;entryDx=0;entryDy=0;" edge="1" parent="1" source="d3MKEvzSY7tE_r2hZzPd-27" target="d3MKEvzSY7tE_r2hZzPd-3">
          <mxGeometry relative="1" as="geometry" />
        </mxCell>
        <mxCell id="d3MKEvzSY7tE_r2hZzPd-27" value="I = 0.725" style="rounded=0;whiteSpace=wrap;html=1;fillColor=#dae8fc;strokeColor=#6c8ebf;" vertex="1" parent="1">
          <mxGeometry x="240" y="730" width="120" height="60" as="geometry" />
        </mxCell>
        <mxCell id="d3MKEvzSY7tE_r2hZzPd-39" value="Quis incrementar um pouco!" style="text;strokeColor=none;fillColor=none;align=left;verticalAlign=middle;spacingLeft=4;spacingRight=4;overflow=hidden;points=[[0,0.5],[1,0.5]];portConstraint=eastwest;rotatable=0;whiteSpace=wrap;html=1;" vertex="1" parent="1">
          <mxGeometry x="235" y="50" width="190" height="100" as="geometry" />
        </mxCell>
      </root>
    </mxGraphModel>
  </diagram>
</mxfile>
